# xmcd
#
# Track frame offsets:
#	150
#	10976
#	22800
#	34580
#	48440
#	61934
#	72852
#	84400
#	97724
#	109048
#	121396
#	134918
#	148441
#	159044
#	175007
#	188533
#	200158
#
# Disc length: 2839
#
# Revision: 3
# Processed by: cddbd v1.5.1PL0 Copyright (c) Steve Scherf et al.
# Submitted via: dBpowerAMP V4.0
# Normalized: r2:DSETVAR1,TDELIM( - )
#
DISCID=de0b1511
DTITLE=Various Artist - Sowl Power ~ The Very Best of Rhythm and Blues [CD 1)
DYEAR=1900
DGENRE=Blues
TTITLE0=Aretha Franklin - Respect
TTITLE1=Sam And Dave - Soul Man
TTITLE2=Otis Redding - I Can't Turn You Loose
TTITLE3=Eddie Floyd - Knock on Wood
TTITLE4=Joe Turner - Shake, Rattle And Roll
TTITLE5=Wilson Pickett - Land of 1000 Dances
TTITLE6=Ray Charles - Hallelujah, I Love Her So
TTITLE7=King Kurtis - Menphis Soul Stew
TTITLE8=Doris Troy - Just One Look
TTITLE9=Solomon Burke - Everybody Needs Somebody to Love
TTITLE10=Otis Redding And Carla Thomas - Tramp
TTITLE11=Don Covay - See-Saw
TTITLE12=Arthur Conley - Sweet Soul Music
TTITLE13=Aretha Franklin - I Say a Little Prayer
TTITLE14=Ben E. King - Stand by Me
TTITLE15=Chuck Willis - C.C. Rider
TTITLE16=Booker t and The M.G.'s - Green Onions
EXTD=
EXTT0=
EXTT1=
EXTT2=
EXTT3=
EXTT4=
EXTT5=
EXTT6=
EXTT7=
EXTT8=
EXTT9=
EXTT10=
EXTT11=
EXTT12=
EXTT13=
EXTT14=
EXTT15=
EXTT16=
PLAYORDER=
